<svg xmlns="http://www.w3.org/2000/svg" viewBox="0 0 180 180" role="img" aria-label="Cana">
  <defs>
    <radialGradient id="bg" cx="38%" cy="16%" r="82%">
      <stop offset="0" stop-color="#4b3a15"/>
      <stop offset="0.48" stop-color="#171a21"/>
      <stop offset="1" stop-color="#0b0d11"/>
    </radialGradient>
    <linearGradient id="beer" x1="0" x2="1">
      <stop offset="0" stop-color="#f7d45a"/>
      <stop offset="0.45" stop-color="#d99119"/>
      <stop offset="1" stop-color="#8d470c"/>
    </linearGradient>
    <linearGradient id="glass" x1="0" x2="1">
      <stop offset="0" stop-color="#ffffff" stop-opacity=".65"/>
      <stop offset=".28" stop-color="#ffffff" stop-opacity=".12"/>
      <stop offset=".7" stop-color="#ffffff" stop-opacity=".2"/>
      <stop offset="1" stop-color="#ffffff" stop-opacity=".52"/>
    </linearGradient>
  </defs>
  <rect width="180" height="180" rx="34" fill="url(#bg)"/>
  <ellipse cx="90" cy="139" rx="44" ry="11" fill="#000" opacity=".35"/>
  <path d="M62 52h56l-8 85H70L62 52Z" fill="url(#beer)"/>
  <path d="M60 50h60l-8 89H68L60 50Z" fill="none" stroke="url(#glass)" stroke-width="6"/>
  <path d="M59 45c6-12 23-4 31-9 14-8 21 7 31 7 8 0 12 6 9 13-5 10-20 6-34 6H64c-8 0-10-8-5-17Z" fill="#fff4d1"/>
  <path d="M81 60c-5 23-2 49 2 68" stroke="#fff7c9" stroke-width="5" stroke-linecap="round" opacity=".55"/>
  <path d="M104 62c3 20 1 43-2 62" stroke="#6d3308" stroke-width="4" stroke-linecap="round" opacity=".45"/>
</svg>
