<svg xmlns="http://www.w3.org/2000/svg" viewBox="0 0 180 180" role="img" aria-label="Cafe">
  <defs>
    <radialGradient id="bg" cx="40%" cy="16%" r="82%">
      <stop offset="0" stop-color="#4a2d1b"/>
      <stop offset=".48" stop-color="#171a21"/>
      <stop offset="1" stop-color="#0b0d11"/>
    </radialGradient>
    <linearGradient id="cup" x1="0" x2="1">
      <stop offset="0" stop-color="#f7f2e7"/>
      <stop offset=".55" stop-color="#bcb4a8"/>
      <stop offset="1" stop-color="#ffffff"/>
    </linearGradient>
  </defs>
  <rect width="180" height="180" rx="34" fill="url(#bg)"/>
  <ellipse cx="88" cy="141" rx="52" ry="12" fill="#000" opacity=".36"/>
  <path d="M55 79h65l-8 45c-3 14-11 20-25 20s-22-6-25-20l-7-45Z" fill="url(#cup)"/>
  <ellipse cx="87" cy="79" rx="33" ry="9" fill="#fff8eb"/>
  <ellipse cx="87" cy="80" rx="25" ry="6" fill="#3b2015"/>
  <path d="M118 90c20-2 26 9 20 22-4 9-13 14-27 14" fill="none" stroke="#efe9dd" stroke-width="8" stroke-linecap="round"/>
  <path d="M75 48c-8 9 8 12 0 23M91 43c-8 10 9 13 0 26M106 50c-7 8 7 11 0 20" stroke="#f5c542" stroke-opacity=".55" stroke-width="4" stroke-linecap="round"/>
  <path d="M67 91c0 14 2 25 9 36" stroke="#fff" stroke-width="4" stroke-linecap="round" opacity=".45"/>
</svg>
