<svg xmlns="http://www.w3.org/2000/svg" viewBox="0 0 180 180" role="img" aria-label="Agua mineral">
  <defs>
    <radialGradient id="bg" cx="40%" cy="14%" r="80%">
      <stop offset="0" stop-color="#1c4b62"/>
      <stop offset=".5" stop-color="#171a21"/>
      <stop offset="1" stop-color="#0b0d11"/>
    </radialGradient>
    <linearGradient id="water" x1="0" x2="1">
      <stop offset="0" stop-color="#bff4ff" stop-opacity=".75"/>
      <stop offset=".5" stop-color="#52bfe3" stop-opacity=".5"/>
      <stop offset="1" stop-color="#f2feff" stop-opacity=".7"/>
    </linearGradient>
  </defs>
  <rect width="180" height="180" rx="34" fill="url(#bg)"/>
  <ellipse cx="91" cy="144" rx="39" ry="11" fill="#000" opacity=".34"/>
  <path d="M75 41h31v18c8 10 12 24 12 42 0 27-10 42-27 42S64 128 64 101c0-18 4-32 11-42V41Z" fill="url(#water)"/>
  <path d="M73 39h35v20c8 10 12 25 12 43 0 29-11 44-29 44s-29-15-29-44c0-18 4-33 11-43V39Z" fill="none" stroke="#fff" stroke-opacity=".35" stroke-width="5"/>
  <path d="M75 78h34l1 34H72l3-34Z" fill="#74d7f0" opacity=".55"/>
  <path d="M81 52c-6 25-5 51-2 77" stroke="#fff" stroke-width="4" stroke-linecap="round" opacity=".38"/>
  <path d="M78 35h25" stroke="#f5c542" stroke-width="8" stroke-linecap="round"/>
  <circle cx="96" cy="90" r="4" fill="#fff" opacity=".5"/>
  <circle cx="86" cy="112" r="3" fill="#fff" opacity=".4"/>
</svg>
